<svg xmlns="http://www.w3.org/2000/svg" data-name="Layer 1" viewBox="0 0 512 512"><path fill="#ac5e2e" d="M504.5,359.3v40.19a81.22,81.22,0,0,1-81.12,81.13h-79a15,15,0,0,1,0-30h79a51.18,51.18,0,0,0,51.12-51.13V359.3a51.17,51.17,0,0,0-51.12-51.12,15,15,0,0,1,0-30A81.21,81.21,0,0,1,504.5,359.3Z"/><circle cx="376" cy="73.05" r="65.55" fill="#c86d36"/><circle cx="355.82" cy="93.23" r="33.61" fill="#d77f4a"/><circle cx="136" cy="73.05" r="65.55" fill="#c86d36"/><circle cx="156.18" cy="93.23" r="33.61" fill="#d77f4a"/><path fill="#c86d36" d="M397,386.35A118.17,118.17,0,0,1,278.85,504.5h-45.7a118.15,118.15,0,0,1-97.72-184.56l43.42-63.89L220,195.5h72L346,274.88l30.62,45.06A118.18,118.18,0,0,1,397,386.35Z"/><path fill="#ac5e2e" d="M346,274.88a113.48,113.48,0,0,1-167.1-18.83L220,195.5h72Z"/><ellipse cx="256" cy="156.9" fill="#c86d36" rx="114.6" ry="116.31"/><path fill="#fdd79b" d="M365.32 121.91c-5.1-3-25.17-14.27-50.32-10.32a68.91 68.91 0 0 0-48.36 32.72c-3.19 5.36-12 5.12-14.83-.39a72.45 72.45 0 0 0-45.51-36.44c-27-7.39-50.41 2.23-56.14 4.76a117.42 117.42 0 0 0-8.76 44.66c0 64.24 51.31 116.31 114.6 116.31S370.6 221.14 370.6 156.9A117.84 117.84 0 0 0 365.32 121.91zM256 336.73h0a77.93 77.93 0 0 0-77.93 77.93v76.23a117.56 117.56 0 0 0 55.08 13.61h45.7a117.56 117.56 0 0 0 55.08-13.61V414.66A77.93 77.93 0 0 0 256 336.73z"/><path fill="#444" d="M238.24,210.76h35.52a6,6,0,0,1,4.66,9.77L271,229.77a19.22,19.22,0,0,1-29.9,0l-7.47-9.24A6,6,0,0,1,238.24,210.76Z"/><path d="M196.56,176.75a7.5,7.5,0,0,0,7.5-7.5V153.08a7.5,7.5,0,1,0-15,0v16.17A7.5,7.5,0,0,0,196.56,176.75Zm226.82,93.93a22.5,22.5,0,0,0,0,45A43.67,43.67,0,0,1,467,359.3v40.19a43.67,43.67,0,0,1-43.62,43.62H390.93a125.58,125.58,0,0,0-8.16-127.39l-45.31-66.67A124.31,124.31,0,0,0,378.1,156.9c0-1.41,0-2.82-.08-4.22,0-.35,0-.71,0-1.07-.05-1.35-.12-2.7-.22-4.05a.91.91,0,0,1,0-.17l-.12-1.34A73,73,0,1,0,308.48,45.13a120.4,120.4,0,0,0-105,0,73.05,73.05,0,1,0-69.15,100.92c-.12,1.41-.23,2.82-.3,4.24a2.64,2.64,0,0,1,0,.28c0,.89-.07,1.78-.1,2.67,0,.17,0,.34,0,.51,0,1.05,0,2.1,0,3.15a124.31,124.31,0,0,0,40.64,92.15l-45.31,66.67a125.63,125.63,0,0,0,44.65,181.4,8.5,8.5,0,0,0,1.37.72A124.88,124.88,0,0,0,233.15,512h45.7a124.88,124.88,0,0,0,57.9-14.16,7.78,7.78,0,0,0,1.37-.72,127,127,0,0,0,14.34-9h70.92A88.72,88.72,0,0,0,512,399.49V359.3A88.72,88.72,0,0,0,423.38,270.68Zm-52.61-156a124.27,124.27,0,0,0-27.55-44.28,26.11,26.11,0,0,1,27.55,44.28ZM376,15a58,58,0,1,1,0,116.09h-.58c-.09-.44-.18-.89-.28-1.34,0-.06,0-.13-.05-.2a41.11,41.11,0,1,0-43.32-69.65,121.29,121.29,0,0,0-10.1-7.32A58.17,58.17,0,0,1,376,15ZM256,48.09c41.54,0,77.64,24.16,95.39,59.37a80.78,80.78,0,0,0-37.56-3.28,76,76,0,0,0-53.63,36.3,1.44,1.44,0,0,1-.8.21,1.8,1.8,0,0,1-.92-.21,80.22,80.22,0,0,0-50.2-40.24A89.81,89.81,0,0,0,165,99.57C183.93,68.69,217.64,48.09,256,48.09Zm-119.44,83H136a58,58,0,1,1,54.32-78.52,122.82,122.82,0,0,0-10.09,7.32,41.11,41.11,0,1,0-43.34,69.64C136.77,130.05,136.67,130.57,136.56,131.08Zm6.66-21.69c-.71,1.73-1.38,3.48-2,5.23a26.12,26.12,0,0,1,27.57-44.27,124.48,124.48,0,0,0-25.33,38.54C143.37,109.05,143.29,109.22,143.22,109.39Zm5.68,47.51c0-1.53,0-3.05.1-4.56,0-.24,0-.47,0-.7.07-1.38.16-2.76.28-4.13,0-.38.06-.77.1-1.15.12-1.26.26-2.51.42-3.76.07-.51.14-1,.21-1.5.17-1.16.35-2.31.55-3.46.1-.59.22-1.17.33-1.76.15-.78.31-1.57.48-2.34.2-.94.42-1.87.64-2.8l.48-1.88c.28-1.07.57-2.12.89-3.17.16-.55.32-1.09.49-1.63.36-1.16.74-2.3,1.14-3.44.15-.44.31-.89.47-1.33s.34-.91.51-1.36c9.2-3.61,27.76-8.84,48.31-3.22a65.14,65.14,0,0,1,40.82,32.64,16.27,16.27,0,0,0,27.95.8A61,61,0,0,1,316.16,119c18.91-3,34.91,3.67,42.81,7.93.46,1.64.89,3.29,1.27,5,.09.36.17.71.24,1.06q.22,1,.42,2t.42,2.19c.12.66.23,1.33.34,2s.21,1.27.3,1.91c.07.46.13.93.19,1.4.1.78.2,1.56.28,2.34,0,.32.08.63.11.94.11,1.09.2,2.17.28,3.26l.06,1c.05.84.09,1.68.13,2.53,0,.33,0,.67,0,1,0,1.13.05,2.27.05,3.41,0,60-48,108.81-107.1,108.81S148.9,216.9,148.9,156.9ZM326.43,486.23A110,110,0,0,1,278.85,497h-45.7a110,110,0,0,1-47.58-10.77V414.66a70.43,70.43,0,0,1,140.86,0Zm15-8.68V414.66a85.43,85.43,0,0,0-170.86,0v62.89a110.6,110.6,0,0,1-28.94-153.4l44.64-65.67a120.46,120.46,0,0,0,139.46,0l44.64,65.68a110.6,110.6,0,0,1-28.94,153.4ZM497,399.49a73.7,73.7,0,0,1-73.62,73.62H369.65a125.48,125.48,0,0,0,12.28-15h41.45A58.68,58.68,0,0,0,482,399.49V359.3a58.68,58.68,0,0,0-58.62-58.62,7.5,7.5,0,0,1,0-15A73.7,73.7,0,0,1,497,359.3ZM310.69,176.75a7.5,7.5,0,0,0,7.5-7.5V153.08a7.5,7.5,0,1,0-15,0v16.17A7.5,7.5,0,0,0,310.69,176.75Zm-75.47,57.74a26.72,26.72,0,0,0,41.56,0l7.47-9.24a13.5,13.5,0,0,0-10.49-22H238.24a13.5,13.5,0,0,0-10.49,22Zm35.39-16.23-5.49,6.8a11.73,11.73,0,0,1-18.24,0l-5.49-6.79Z"/></svg>