<svg xmlns="http://www.w3.org/2000/svg" viewBox="0 0 24 24"><g data-name="Jack Sparrow"><path fill="#303c42" d="M11.5,15a.5.5,0,0,0-.48.35,2.57,2.57,0,0,1-1,.15,2.17,2.17,0,0,0-1.92.72A.5.5,0,0,0,8.5,17a.48.48,0,0,0,.4-.22s.26-.3,1.1-.3c1.74,0,2-.63,2-1A.5.5,0,0,0,11.5,15Z"/><path fill="#303c42" d="M14 15.5a2.57 2.57 0 01-1-.15.5.5 0 00-1 .15c0 .37.26 1 2 1a1.57 1.57 0 011.08.28h0a.5.5 0 00.83-.55A2.17 2.17 0 0014 15.5zM12.66 17a.5.5 0 00-.63.32l0 .08 0-.08a.5.5 0 00-.95.32l.5 1.5a.5.5 0 00.95 0l.5-1.5A.5.5 0 0012.66 17z"/><path fill="#303c42" d="M24,5a4.82,4.82,0,0,0-5-4,23.65,23.65,0,0,0-3.09.23,6.85,6.85,0,0,0-7.83,0A23.65,23.65,0,0,0,5,1,4.82,4.82,0,0,0,0,5c0,.85,2.14,3,4,4.72v8.44a1,1,0,0,0,0,1.69v.31a1,1,0,0,0,0,1.69V23.5a.5.5,0,0,0,1,0V21.85a1,1,0,0,0,0-1.69v-.31a1,1,0,0,0,0-1.69V9.72a5.19,5.19,0,0,1,.5-.39V23.5A.5.5,0,0,0,6,24h.5a.5.5,0,0,0,.5-.5V18.87a8.58,8.58,0,0,0,2.56,1.61,27.21,27.21,0,0,1,.44,3,.5.5,0,0,0,1,0c0-.84.3-2.5,1-2.5s1,1.72,1,2.5a.5.5,0,0,0,1,0,27.21,27.21,0,0,1,.44-3A8.58,8.58,0,0,0,17,18.87V23.5a.5.5,0,0,0,.5.5H18a.5.5,0,0,0,.5-.5V9.34a5.19,5.19,0,0,1,.5.39v5.43a1,1,0,0,0,0,1.69V23.5a.5.5,0,0,0,1,0V16.85a1,1,0,0,0,0-1.69V9.72C21.86,8,24,5.85,24,5ZM13.57,7H10.43C11,6.06,11.58,4.71,12,3.77,12.42,4.71,13,6.06,13.57,7ZM10.64,20.84v0h0ZM12,20a6.87,6.87,0,0,1-5-2.64V10.84A14.26,14.26,0,0,1,12,10a14.35,14.35,0,0,1,5,.84v6.52A6.87,6.87,0,0,1,12,20Z"/><path fill="#303c42" d="M9,13a1,1,0,0,0,1-1,.5.5,0,0,0-.5-.5h-1A.5.5,0,0,0,8,12,1,1,0,0,0,9,13Z"/><circle cx="15" cy="12" r="1" fill="#303c42"/></g></svg>